<?xml version="1.0" encoding="utf-8"?>
<!-- Generator: Adobe Illustrator 16.0.0, SVG Export Plug-In . SVG Version: 6.00 Build 0)  -->
<!DOCTYPE svg PUBLIC "-//W3C//DTD SVG 1.1//EN" "http://www.w3.org/Graphics/SVG/1.1/DTD/svg11.dtd">
<svg version="1.1" id="Layer_1" xmlns="http://www.w3.org/2000/svg" xmlns:xlink="http://www.w3.org/1999/xlink" x="0px" y="0px"
	 width="15px" height="15px" viewBox="0 0 15 15" enable-background="new 0 0 15 15" xml:space="preserve">
<path fill="#181B3D" d="M1.239,7.993c-0.099-0.1-0.148-0.248-0.148-0.346c0-0.099,0.049-0.247,0.148-0.345l0.69-0.69
	c0.197-0.197,0.493-0.197,0.69,0l0.049,0.049L5.38,9.569c0.099,0.101,0.247,0.101,0.344,0l6.606-6.852h0.051l0,0
	c0.196-0.197,0.492-0.197,0.689,0l0.69,0.69c0.196,0.196,0.196,0.493,0,0.69l0,0l-7.888,8.183c-0.099,0.098-0.197,0.148-0.346,0.148
	c-0.147,0-0.246-0.051-0.344-0.148L1.338,8.141L1.239,7.993L1.239,7.993z"/>
</svg>
